<svg version="1.1" style="font-family: Roboto; font-size: 12px;" xmlns="http://www.w3.org/2000/svg" width="650" height="400" viewBox="0 0 650 400" aria-hidden="false" aria-label="Interactive chart"><defs aria-hidden="true"><clipPath ><rect x="0" y="0" width="563" height="280" fill="none"></rect></clipPath><clipPath ><rect x="0" y="0" width="563" height="280" fill="none"></rect></clipPath><clipPath ><rect x="0" y="0" width="563" height="280" fill="none"></rect></clipPath></defs><rect fill="#ffffff" x="0" y="0" width="650" height="400" rx="0" ry="0" aria-hidden="true"></rect><rect fill="none" x="37" y="46" width="563" height="280" aria-hidden="true"></rect><g data-z-index="0" aria-hidden="true"></g><rect fill="none" data-z-index="1" x="37" y="46" width="563" height="280" aria-hidden="true"></rect><g data-z-index="1" aria-hidden="true"><path fill="none" stroke-dasharray="none" data-z-index="1" d="M 149.5 46 L 149.5 326" opacity="1"></path><path fill="none" stroke-dasharray="none" data-z-index="1" d="M 261.5 46 L 261.5 326" opacity="1"></path><path fill="none" stroke-dasharray="none" data-z-index="1" d="M 374.5 46 L 374.5 326" opacity="1"></path><path fill="none" stroke-dasharray="none" data-z-index="1" d="M 486.5 46 L 486.5 326" opacity="1"></path><path fill="none" stroke-dasharray="none" data-z-index="1" d="M 599.5 46 L 599.5 326" opacity="1"></path><path fill="none" stroke-dasharray="none" data-z-index="1" d="M 36.5 46 L 36.5 326" opacity="1"></path></g><g data-z-index="1" aria-hidden="true"><path fill="none" stroke="#e6e6e6" stroke-width="1" stroke-dasharray="none" data-z-index="1" d="M 37 326.5 L 600 326.5" opacity="1"></path><path fill="none" stroke="#e6e6e6" stroke-width="1" stroke-dasharray="none" data-z-index="1" d="M 37 256.5 L 600 256.5" opacity="1"></path><path fill="none" stroke="#e6e6e6" stroke-width="1" stroke-dasharray="none" data-z-index="1" d="M 37 186.5 L 600 186.5" opacity="1"></path><path fill="none" stroke="#e6e6e6" stroke-width="1" stroke-dasharray="none" data-z-index="1" d="M 37 116.5 L 600 116.5" opacity="1"></path><path fill="none" stroke="#e6e6e6" stroke-width="1" stroke-dasharray="none" data-z-index="1" d="M 37 45.5 L 600 45.5" opacity="1"></path></g><g data-z-index="1" aria-hidden="true"><path fill="none" stroke="#e6e6e6" stroke-width="1" stroke-dasharray="none" data-z-index="1" d="M 37 326.5 L 600 326.5" opacity="1"></path><path fill="none" stroke="#e6e6e6" stroke-width="1" stroke-dasharray="none" data-z-index="1" d="M 37 256.5 L 600 256.5" opacity="1"></path><path fill="none" stroke="#e6e6e6" stroke-width="1" stroke-dasharray="none" data-z-index="1" d="M 37 186.5 L 600 186.5" opacity="1"></path><path fill="none" stroke="#e6e6e6" stroke-width="1" stroke-dasharray="none" data-z-index="1" d="M 37 116.5 L 600 116.5" opacity="1"></path><path fill="none" stroke="#e6e6e6" stroke-width="1" stroke-dasharray="none" data-z-index="1" d="M 37 45.5 L 600 45.5" opacity="1"></path></g><g data-z-index="2" aria-hidden="true"><path fill="none" stroke="#ccd6eb" stroke-width="1" data-z-index="7" d="M 37 326.5 L 600 326.5"></path></g><g data-z-index="2" aria-hidden="true"><path fill="none" data-z-index="7" d="M 37 46 L 37 326"></path></g><g data-z-index="2" aria-hidden="true"><path fill="none" data-z-index="7" d="M 600 46 L 600 326"></path></g><g data-z-index="3" aria-hidden="false"><g data-z-index="0.1" opacity="1" transform="translate(37,46) scale(1 1)" clip-path="url(#highcharts-f54x4l2-924-)" style="cursor: pointer; outline: none;" aria-hidden="false" role="region" tabindex="-1" aria-label="Ratio Distribution, series 1 of 2. Bar series with 5 bars. Y axis, values."><rect x="36" y="281" width="41" height="0" fill="#6f58e9" opacity="1" tabindex="-1" style="outline: none;" role="img" aria-label="Offsets, 1. Ratio Distribution."></rect><rect x="149" y="281" width="41" height="0" fill="#6f58e9" opacity="1" tabindex="-1" style="outline: none;" role="img" aria-label="Span, 1.1. Ratio Distribution."></rect><rect x="261" y="281" width="41" height="0" fill="#6f58e9" opacity="1" tabindex="-1" style="outline: none;" role="img" aria-label="ArraySegment, 1.63. Ratio Distribution."></rect><rect x="374" y="208" width="41" height="73" fill="rgb(111,88,233)" opacity="1" tabindex="-1" style="outline: none;" role="img" aria-label="SpanRanges, 622.66. Ratio Distribution."></rect><rect x="486" y="41" width="41" height="240" fill="#6f58e9" opacity="1" tabindex="-1" style="outline: none;" role="img" aria-label="ArrayRanges, 2,058. Ratio Distribution."></rect></g><g data-z-index="0.1" opacity="1" transform="translate(37,46) scale(1 1)" clip-path="none" aria-hidden="true"></g><g data-z-index="0.1" opacity="1" transform="translate(37,46) scale(1 1)" clip-path="url(#highcharts-f54x4l2-933-)" aria-hidden="true"><path fill="none" d="M 56.3 279.87456 C 56.3 279.87456 123.86000000000001 279.87456 168.9 279.86413 C 213.94 279.8537 236.45999999999998 279.86413 281.5 279.79819 C 326.54 279.73224999999996 349.06000000000006 255.52259599999996 394.1 203.94045 C 439.14000000000004 152.35830399999998 506.7 21.887459999999976 506.7 21.887459999999976" data-z-index="1" stroke="#eb6dc0" stroke-width="2" stroke-linejoin="round" stroke-linecap="round"></path><path fill="none" d="M 56.3 279.87456 C 56.3 279.87456 123.86000000000001 279.87456 168.9 279.86413 C 213.94 279.8537 236.45999999999998 279.86413 281.5 279.79819 C 326.54 279.73224999999996 349.06000000000006 255.52259599999996 394.1 203.94045 C 439.14000000000004 152.35830399999998 506.7 21.887459999999976 506.7 21.887459999999976" data-z-index="2" stroke-linecap="round" stroke-linejoin="round" stroke="rgba(192,192,192,0.0001)" stroke-width="22" style="cursor: pointer;"></path></g><g data-z-index="0.1" opacity="1" transform="translate(37,46) scale(1 1)" clip-path="none" style="cursor: pointer; outline: none;" aria-hidden="false" role="region" tabindex="-1" aria-label="Mean [us], series 2 of 2. Line with 5 data points. Y axis, values."><path fill="#eb6dc0" d="M 56 283.87456 A 4 4 0 1 1 56.00399999933334 283.87455800000015 Z" opacity="1" tabindex="-1" style="outline: none;" role="img" aria-label="Offsets, 1.792. Mean [us]."></path><path fill="#eb6dc0" d="M 168 283.86413 A 4 4 0 1 1 168.00399999933333 283.86412800000016 Z" opacity="1" tabindex="-1" style="outline: none;" role="img" aria-label="Span, 1.941. Mean [us]."></path><path fill="#eb6dc0" d="M 281 283.79819 A 4 4 0 1 1 281.00399999933336 283.79818800000015 Z" opacity="1" tabindex="-1" style="outline: none;" role="img" aria-label="ArraySegment, 2.883. Mean [us]."></path><path fill="#eb6dc0" d="M 394 207.94045 A 4 4 0 1 1 394.00399999933336 207.94044800000017 Z" opacity="1" tabindex="-1" style="outline: none;" role="img" aria-label="SpanRanges, 1,086.565. Mean [us]."></path><path fill="#eb6dc0" d="M 506 25.887459999999976 A 4 4 0 1 1 506.00399999933336 25.887458000000144 Z" opacity="1" tabindex="-1" style="outline: none;" role="img" aria-label="ArrayRanges, 3,687.322. Mean [us]."></path></g></g><g data-z-index="3" aria-hidden="true"><g stroke-linecap="round" style="cursor: pointer;" transform="translate(616,10)"><title>Chart context menu</title><rect fill="#ffffff" x="0.5" y="0.5" width="24" height="22" rx="2" ry="2" stroke="none" stroke-width="1"></rect><path fill="#666666" d="M 6 6.5 L 20 6.5 M 6 11.5 L 20 11.5 M 6 16.5 L 20 16.5" data-z-index="1" stroke="#666666" stroke-width="3"></path><text font-family='Roboto-Regular,Roboto' x="0" data-z-index="1" y="15.5" style="color: rgb(51, 51, 51); font-weight: normal; fill: rgb(51, 51, 51);"></text></g></g><text font-family='Roboto-Regular,Roboto' x="325" text-anchor="middle" data-z-index="4" style="color: rgb(51, 51, 51); font-size: 18px; fill: rgb(51, 51, 51);" y="24" aria-hidden="true">Processing data segments</text><text font-family='Roboto-Regular,Roboto' x="325" text-anchor="middle" data-z-index="4" style="color: rgb(102, 102, 102); fill: rgb(102, 102, 102);" y="45" aria-hidden="true"></text><text font-family='Roboto-Regular,Roboto' x="10" text-anchor="start" data-z-index="4" style="color: rgb(102, 102, 102); fill: rgb(102, 102, 102);" y="397" aria-hidden="true"></text><g data-z-index="6" opacity="1" transform="translate(37,46) scale(1 1)" style="cursor: pointer;" aria-hidden="true"><g data-z-index="1" style="cursor: pointer;" transform="translate(48,262)"><text font-family='Roboto-Regular,Roboto' x="5" data-z-index="1" y="16" style="color: rgb(255, 255, 255); font-size: 11px; font-weight: bold; fill: rgb(255, 255, 255);">1</text></g><g data-z-index="1" style="cursor: pointer;" transform="translate(156,262)"><text font-family='Roboto-Regular,Roboto' x="5" data-z-index="1" y="16" style="color: rgb(255, 255, 255); font-size: 11px; font-weight: bold; fill: rgb(255, 255, 255);">1.1</text></g><g data-z-index="1" style="cursor: pointer;" transform="translate(265,262)"><text font-family='Roboto-Regular,Roboto' x="5" data-z-index="1" y="16" style="color: rgb(255, 255, 255); font-size: 11px; font-weight: bold; fill: rgb(255, 255, 255);">1.63</text></g><g data-z-index="1" style="cursor: pointer;" transform="translate(371,232)"><text font-family='Roboto-Regular,Roboto' x="5" data-z-index="1" y="16" style="color: rgb(255, 255, 255); font-size: 11px; font-weight: bold; fill: rgb(255, 255, 255);">622.66</text></g><g data-z-index="1" style="cursor: pointer;" transform="translate(487,149)"><text font-family='Roboto-Regular,Roboto' x="5" data-z-index="1" y="16" style="color: rgb(255, 255, 255); font-size: 11px; font-weight: bold; fill: rgb(255, 255, 255);">2 058</text></g></g><g data-z-index="6" opacity="1" transform="translate(37,46) scale(1 1)" style="cursor: pointer;" aria-hidden="true"><g data-z-index="1" style="cursor: pointer; pointer-events: none;" transform="translate(37,257)" opacity="0"><text font-family='Roboto-Regular,Roboto' x="5" data-z-index="1" y="16" style="color: rgb(0, 0, 0); font-size: 11px; font-weight: bold; fill: rgb(0, 0, 0);">1.792</text></g><g data-z-index="1" style="cursor: pointer; pointer-events: none;" transform="translate(149,257)" opacity="0"><text font-family='Roboto-Regular,Roboto' x="5" data-z-index="1" y="16" style="color: rgb(0, 0, 0); font-size: 11px; font-weight: bold; fill: rgb(0, 0, 0);">1.941</text></g><g data-z-index="1" style="cursor: pointer; pointer-events: none;" transform="translate(262,257)" opacity="0"><text font-family='Roboto-Regular,Roboto' x="5" data-z-index="1" y="16" style="color: rgb(0, 0, 0); font-size: 11px; font-weight: bold; fill: rgb(0, 0, 0);">2.883</text></g><g data-z-index="1" style="cursor: pointer;" transform="translate(363,181)"><text font-family='Roboto-Regular,Roboto' x="5" data-z-index="1" y="16" style="color: rgb(0, 0, 0); font-size: 11px; font-weight: bold; fill: rgb(0, 0, 0);">1 086.565</text></g><g data-z-index="1" style="cursor: pointer;" transform="translate(476,-1)"><text font-family='Roboto-Regular,Roboto' x="5" data-z-index="1" y="16" style="color: rgb(0, 0, 0); font-size: 11px; font-weight: bold; fill: rgb(0, 0, 0);">3 687.322</text></g></g><g data-z-index="7" aria-hidden="true" transform="translate(208,359)"><rect fill="none" rx="0" ry="0" x="0" y="0" width="233" height="26"></rect><g data-z-index="1"><g><g data-z-index="1" transform="translate(8,3)"><text font-family='Roboto-Regular,Roboto' x="21" style="color: rgb(51, 51, 51); cursor: pointer; font-size: 12px; font-weight: bold; fill: rgb(51, 51, 51);" text-anchor="start" data-z-index="2" y="15">Ratio Distribution</text><rect x="2" y="4" width="12" height="12" fill="#6f58e9" rx="6" ry="6" data-z-index="3"></rect></g><g data-z-index="1" transform="translate(148.30001068115234,3)"><path fill="none" d="M 0 11 L 16 11" stroke="#eb6dc0" stroke-width="2"></path><path fill="#eb6dc0" d="M 8 15 A 4 4 0 1 1 8.003999999333336 14.999998000000167 Z" opacity="1"></path><text font-family='Roboto-Regular,Roboto' x="21" y="15" style="color: rgb(51, 51, 51); cursor: pointer; font-size: 12px; font-weight: bold; fill: rgb(51, 51, 51);" text-anchor="start" data-z-index="2">Mean [us]</text></g></g></g></g><g data-z-index="7" aria-hidden="true"><text font-family='Roboto-Regular,Roboto' x="93.3" style="color: rgb(102, 102, 102); cursor: default; font-size: 11px; fill: rgb(102, 102, 102);" text-anchor="middle" transform="translate(0,0)" y="345" opacity="1">Offsets</text><text font-family='Roboto-Regular,Roboto' x="205.89999999999998" style="color: rgb(102, 102, 102); cursor: default; font-size: 11px; fill: rgb(102, 102, 102);" text-anchor="middle" transform="translate(0,0)" y="345" opacity="1">Span</text><text font-family='Roboto-Regular,Roboto' x="318.5" style="color: rgb(102, 102, 102); cursor: default; font-size: 11px; fill: rgb(102, 102, 102);" text-anchor="middle" transform="translate(0,0)" y="345" opacity="1">ArraySegment</text><text font-family='Roboto-Regular,Roboto' x="431.09999999999997" style="color: rgb(102, 102, 102); cursor: default; font-size: 11px; fill: rgb(102, 102, 102);" text-anchor="middle" transform="translate(0,0)" y="345" opacity="1">SpanRanges</text><text font-family='Roboto-Regular,Roboto' x="543.7" style="color: rgb(102, 102, 102); cursor: default; font-size: 11px; fill: rgb(102, 102, 102);" text-anchor="middle" transform="translate(0,0)" y="345" opacity="1">ArrayRanges</text></g><g data-z-index="7" aria-hidden="true"><text font-family='Roboto-Regular,Roboto' x="22" style="color: rgb(102, 102, 102); cursor: default; font-size: 11px; fill: rgb(102, 102, 102);" text-anchor="end" transform="translate(0,0)" y="330" opacity="1">0</text><text font-family='Roboto-Regular,Roboto' x="22" style="color: rgb(102, 102, 102); cursor: default; font-size: 11px; fill: rgb(102, 102, 102);" text-anchor="end" transform="translate(0,0)" y="260" opacity="1">1k</text><text font-family='Roboto-Regular,Roboto' x="22" style="color: rgb(102, 102, 102); cursor: default; font-size: 11px; fill: rgb(102, 102, 102);" text-anchor="end" transform="translate(0,0)" y="190" opacity="1">2k</text><text font-family='Roboto-Regular,Roboto' x="22" style="color: rgb(102, 102, 102); cursor: default; font-size: 11px; fill: rgb(102, 102, 102);" text-anchor="end" transform="translate(0,0)" y="120" opacity="1">3k</text><text font-family='Roboto-Regular,Roboto' x="22" style="color: rgb(102, 102, 102); cursor: default; font-size: 11px; fill: rgb(102, 102, 102);" text-anchor="end" transform="translate(0,0)" y="50" opacity="1">4k</text></g><g data-z-index="7" aria-hidden="true"><text font-family='Roboto-Regular,Roboto' x="615" style="color: rgb(102, 102, 102); cursor: default; font-size: 11px; fill: rgb(102, 102, 102);" text-anchor="start" transform="translate(0,0)" y="330" opacity="1">0</text><text font-family='Roboto-Regular,Roboto' x="615" style="color: rgb(102, 102, 102); cursor: default; font-size: 11px; fill: rgb(102, 102, 102);" text-anchor="start" transform="translate(0,0)" y="260" opacity="1">600</text><text font-family='Roboto-Regular,Roboto' x="615" style="color: rgb(102, 102, 102); cursor: default; font-size: 11px; fill: rgb(102, 102, 102);" text-anchor="start" transform="translate(0,0)" y="190" opacity="1">1200</text><text font-family='Roboto-Regular,Roboto' x="615" style="color: rgb(102, 102, 102); cursor: default; font-size: 11px; fill: rgb(102, 102, 102);" text-anchor="start" transform="translate(0,0)" y="120" opacity="1">1800</text><text font-family='Roboto-Regular,Roboto' x="615" style="color: rgb(102, 102, 102); cursor: default; font-size: 11px; fill: rgb(102, 102, 102);" text-anchor="start" transform="translate(0,0)" y="50" opacity="1">2400</text></g></svg>